<?xml version="1.0" encoding="UTF-8"?>
<svg id="Layer_1" data-name="Layer 1" xmlns="http://www.w3.org/2000/svg" viewBox="0 0 300 200">
  <defs>
    <style>
      .cls-1 {
        fill: #0089d6;
      }
    </style>
  </defs>
  <path class="cls-1" d="M62.37,134.38c12.77-2.26,23.32-4.12,23.44-4.15l.22-.05-12.06-14.34c-6.63-7.89-12.06-14.37-12.06-14.41,0-.07,12.45-34.35,12.52-34.47.02-.04,8.49,14.58,20.53,35.45,11.27,19.54,20.57,35.65,20.65,35.8l.16.27h-38.31s-38.31,0-38.31,0l23.22-4.1ZM209.3,130.91c-5.83-.37-9.22-3.69-10.12-9.91-.24-1.65-.24-1.7-.26-12.43l-.02-10.39h5.16l.02,10.05c.02,9.06.03,10.12.12,10.76.35,2.59,1.05,4.32,2.24,5.57.95,1,2.07,1.58,3.61,1.89.73.15,2.8.15,3.47,0,1.57-.34,2.82-1.03,3.93-2.13,1.26-1.26,2.19-3.05,2.65-5.08l.15-.68.02-10.13.02-10.13h5.27v31.86h-5.22v-2.53c0-1.72-.02-2.52-.06-2.51-.03.01-.17.22-.3.46-.9,1.64-2.4,3.14-4.04,4.04-1.97,1.08-3.94,1.47-6.63,1.29ZM268.49,130.89c-2.06-.15-4.23-.86-6-1.96-3.73-2.31-5.94-6.12-6.59-11.36-.22-1.81-.25-4.25-.06-5.79.42-3.44,1.77-6.82,3.7-9.23.49-.62,1.61-1.74,2.23-2.23,1.67-1.33,3.62-2.27,5.7-2.72,1.21-.26,3.34-.39,4.62-.27,3.23.3,6.18,1.82,8.19,4.21,2.04,2.43,3.16,5.82,3.31,10,.02.65.03,1.8.01,2.55l-.03,1.36h-11.3s-11.3.03-11.3.03v.5c0,1.53.37,3.28,1.02,4.77.56,1.28,1.51,2.68,2.3,3.36,1.61,1.39,3.57,2.22,5.73,2.42.8.07,2.83,0,3.74-.14,2.6-.4,5.06-1.42,7.06-2.91.23-.18.46-.34.5-.36.06-.04.07.42.07,2.35v2.4s-.54.33-.54.33c-2.25,1.39-4.84,2.29-7.57,2.62-.82.1-3.81.14-4.79.07ZM278.32,110.66c0-2.57-1.08-5.43-2.62-6.9-1.09-1.05-2.42-1.69-3.99-1.93-.74-.12-2.31-.07-3.1.09-1.66.33-3.03,1.06-4.23,2.25-1.26,1.24-2.2,2.75-2.8,4.48-.21.62-.46,1.64-.54,2.2l-.04.27h17.3v-.45ZM125.09,130.09s3.85-10.12,8.52-22.39l8.5-22.32h2.73s2.73,0,2.73,0l.23.58c.69,1.78,17.02,44.16,17.02,44.18,0,.01-1.31.03-2.91.03h-2.91s-2.35-6.26-2.35-6.26l-2.35-6.26h-18.95s-.08.21-.08.21c-.05.12-1.05,2.94-2.23,6.26l-2.15,6.05h-2.91c-2.3,0-2.91-.01-2.89-.07ZM152.58,112.85s-1.58-4.3-3.52-9.54c-3.62-9.8-3.82-10.39-4.11-11.96-.13-.74-.2-.76-.28-.08-.06.48-.3,1.56-.49,2.15-.09.3-1.72,4.77-3.62,9.94-1.9,5.17-3.45,9.43-3.45,9.45s3.48.05,7.74.05,7.74,0,7.74-.02ZM166.58,129.34v-.82l9.44-12.97,9.44-12.98-8.55-.03-8.55-.03v-2.17s-.03-2.17-.03-2.17h24.72v1.47l-9.44,13.05c-5.19,7.18-9.44,13.06-9.44,13.07s4.2.03,9.33.03h9.33v4.37h-26.25v-.82ZM235.84,130.12s-.04-7.22-.04-15.99v-15.95h5.16v3.29c0,1.81.02,3.29.05,3.29.03,0,.15-.3.28-.66.58-1.66,1.59-3.21,2.88-4.44,1.17-1.11,2.5-1.77,4.08-2.03.44-.07.82-.08,1.7-.06,1.11.03,1.69.11,2.37.33l.21.07v5.36l-.61-.31c-1.08-.54-2.14-.75-3.42-.69-.83.04-1.38.15-2.04.4-1.37.51-2.48,1.42-3.25,2.65-1.12,1.79-1.92,4.09-2.16,6.2-.04.38-.07,3.47-.08,9.56v9h-2.56c-1.4,0-2.56-.02-2.58-.04ZM16.4,130.01s5.68-9.88,12.62-21.91l12.62-21.88,14.71-12.35c8.09-6.79,14.73-12.35,14.76-12.36.03-.01-.08.26-.24.6-.16.34-7.34,15.76-15.97,34.26l-15.69,33.65h-11.41c-6.27.02-11.41.01-11.41,0Z"/>
</svg>