<svg width="40" height="40" viewBox="0 0 40 40" fill="none" xmlns="http://www.w3.org/2000/svg">
<rect x="0.5" y="0.5" width="39" height="39" rx="19.5" stroke="#E8E6E3"/>
<path d="M23.4245 19.1731L19.2269 16.9388C18.9856 16.8103 18.7003 16.8151 18.4637 16.9515C18.227 17.088 18.0858 17.3291 18.0858 17.5968V22.0271C18.0858 22.2935 18.2261 22.5342 18.4613 22.6709C18.584 22.7422 18.7201 22.778 18.8566 22.778C18.9815 22.778 19.1068 22.748 19.222 22.6876L23.4197 20.4918C23.6688 20.3614 23.8244 20.1094 23.8255 19.8339C23.8266 19.5585 23.6729 19.3054 23.4245 19.1731ZM19.1992 21.4698V18.1586L22.3364 19.8286L19.1992 21.4698Z" fill="black"/>
<path d="M29.8601 16.3043L29.8592 16.2958C29.8432 16.147 29.683 14.8237 29.0217 14.1506C28.2573 13.3589 27.3908 13.2627 26.974 13.2166C26.9395 13.2128 26.9079 13.2093 26.8796 13.2056L26.8465 13.2022C24.3346 13.0245 20.5412 13.0003 20.5033 13.0001L20.4999 13L20.4966 13.0001C20.4586 13.0003 16.6652 13.0245 14.1308 13.2022L14.0973 13.2056C14.0703 13.2091 14.0406 13.2124 14.0083 13.216C13.5963 13.2623 12.7391 13.3586 11.9725 14.1789C11.3427 14.8448 11.1606 16.1398 11.1419 16.2854L11.1397 16.3043C11.1341 16.3662 11 17.84 11 19.3196V20.7027C11 22.1823 11.1341 23.6561 11.1397 23.7182L11.1408 23.7275C11.1568 23.8738 11.3169 25.1729 11.9751 25.8463C12.6938 26.6115 13.6026 26.7127 14.0914 26.7672C14.1686 26.7758 14.2352 26.7831 14.2805 26.7909L14.3245 26.7968C15.7748 26.931 20.3219 26.9972 20.5147 26.9999L20.5205 27L20.5263 26.9999C20.5643 26.9997 24.3575 26.9755 26.8694 26.7978L26.9026 26.7944C26.9343 26.7903 26.97 26.7866 27.0091 26.7827C27.4187 26.7404 28.2714 26.6525 29.0273 25.8433C29.6572 25.1773 29.8394 23.8823 29.8579 23.7369L29.8601 23.718C29.8658 23.656 30 22.1823 30 20.7027V19.3196C29.9999 17.84 29.8658 16.3663 29.8601 16.3043ZM28.8864 20.7027C28.8864 22.0722 28.7635 23.4825 28.7519 23.612C28.7047 23.9686 28.5126 24.7879 28.2057 25.1124C27.7326 25.6188 27.2465 25.669 26.8917 25.7056C26.8488 25.7099 26.8091 25.7142 26.7731 25.7185C24.3436 25.8895 20.6934 25.9157 20.5253 25.9167C20.3367 25.914 15.8561 25.8473 14.45 25.7202C14.3779 25.7088 14.3001 25.7001 14.2181 25.691C13.8019 25.6446 13.2322 25.5812 12.7941 25.1124L12.7838 25.1017C12.4823 24.7961 12.2958 24.03 12.2484 23.6162C12.2395 23.5183 12.1134 22.0913 12.1134 20.7027V19.3196C12.1134 17.9517 12.2361 16.5429 12.2479 16.4107C12.3043 15.9906 12.5 15.2209 12.7941 14.9098C13.2818 14.3881 13.7959 14.3303 14.136 14.292C14.1685 14.2884 14.1988 14.285 14.2268 14.2815C16.6916 14.1097 20.368 14.0842 20.4999 14.0832C20.6318 14.084 24.3069 14.1097 26.7499 14.2815C26.7799 14.2851 26.8127 14.2888 26.8479 14.2927C27.1977 14.3315 27.7263 14.3902 28.2115 14.8936L28.216 14.8983C28.5175 15.2039 28.7041 15.9834 28.7515 16.4055C28.7599 16.4979 28.8864 17.928 28.8864 19.3196V20.7027Z" fill="black"/>
</svg>
